<svg xmlns="http://www.w3.org/2000/svg" xmlns:xlink="http://www.w3.org/1999/xlink" width="40" zoomAndPan="magnify" viewBox="0 0 30 30.000001" height="40" preserveAspectRatio="xMidYMid meet" version="1.0"><defs><clipPath id="fb794c3110"><path d="M 4.816406 3.894531 L 25.140625 3.894531 L 25.140625 24.941406 L 4.816406 24.941406 Z M 4.816406 3.894531 " clip-rule="nonzero"/></clipPath></defs><g clip-path="url(#fb794c3110)"><path fill="#ffffff" d="M 10.3125 17.609375 C 9.308594 15.992188 7.972656 14.203125 5.773438 14.25 C 5.773438 14.25 6.351562 13.511719 7.457031 13.566406 C 7.457031 13.566406 8.136719 11.867188 9.644531 11.894531 C 9.871094 11.902344 10.089844 11.933594 10.300781 11.996094 C 11.1875 12.070312 11.433594 11.386719 11.433594 11.386719 C 11.5 11.878906 11.355469 12.21875 11.195312 12.433594 C 11.792969 12.839844 12.421875 13.480469 13.253906 14.34375 C 18.917969 13.386719 19.855469 7.863281 19.855469 7.863281 C 20.65625 11.691406 19.121094 15.027344 17.898438 16.949219 C 19.503906 17.183594 21.5625 17.042969 24.210938 16.226562 C 24.210938 16.226562 14.992188 25.132812 10.3125 17.609375 Z M 17.566406 7.496094 C 17.886719 9.011719 17.835938 10.453125 17.582031 11.757812 C 16.480469 12.972656 15.058594 13.742188 13.34375 14.058594 C 13.140625 13.847656 12.949219 13.652344 12.765625 13.464844 C 16.835938 11.796875 17.566406 7.496094 17.566406 7.496094 Z M 14.992188 3.894531 C 9.375 3.894531 4.824219 8.445312 4.824219 14.0625 C 4.824219 19.679688 9.375 24.230469 14.992188 24.230469 C 20.609375 24.230469 25.160156 19.679688 25.160156 14.0625 C 25.160156 8.445312 20.609375 3.894531 14.992188 3.894531 " fill-opacity="1" fill-rule="nonzero"/></g></svg>