<svg xmlns="http://www.w3.org/2000/svg" xmlns:xlink="http://www.w3.org/1999/xlink" width="40" zoomAndPan="magnify" viewBox="0 0 30 30.000001" height="40" preserveAspectRatio="xMidYMid meet" version="1.0"><defs><clipPath id="c2a0ed303f"><path d="M 5.164062 4.679688 L 24.761719 4.679688 L 24.761719 24.277344 L 5.164062 24.277344 Z M 5.164062 4.679688 " clip-rule="nonzero"/></clipPath></defs><path fill="#ffffff" d="M 19.914062 8.777344 C 19.914062 9.230469 19.546875 9.597656 19.09375 9.597656 C 18.640625 9.597656 18.273438 9.230469 18.273438 8.777344 C 18.273438 8.324219 18.640625 7.957031 19.09375 7.957031 C 19.546875 7.957031 19.914062 8.324219 19.914062 8.777344 Z M 19.914062 8.777344 " fill-opacity="1" fill-rule="nonzero"/><path fill="#ffffff" d="M 19.914062 14.515625 C 19.914062 17.230469 17.710938 19.429688 14.996094 19.429688 C 12.28125 19.429688 10.082031 17.230469 10.082031 14.515625 C 10.082031 11.796875 12.28125 9.597656 14.996094 9.597656 C 17.710938 9.597656 19.914062 11.796875 19.914062 14.515625 Z M 18.273438 14.515625 C 18.273438 16.324219 16.808594 17.792969 14.996094 17.792969 C 13.1875 17.792969 11.71875 16.324219 11.71875 14.515625 C 11.71875 12.703125 13.1875 11.238281 14.996094 11.238281 C 16.808594 11.238281 18.273438 12.703125 18.273438 14.515625 Z M 18.273438 14.515625 " fill-opacity="1" fill-rule="evenodd"/><g clip-path="url(#c2a0ed303f)"><path fill="#ffffff" d="M 5.164062 8.777344 C 5.164062 6.515625 7 4.679688 9.261719 4.679688 L 20.734375 4.679688 C 22.996094 4.679688 24.832031 6.515625 24.832031 8.777344 L 24.832031 20.25 C 24.832031 22.511719 22.996094 24.347656 20.734375 24.347656 L 9.261719 24.347656 C 7 24.347656 5.164062 22.511719 5.164062 20.25 Z M 9.261719 6.320312 C 7.90625 6.320312 6.804688 7.421875 6.804688 8.777344 L 6.804688 20.25 C 6.804688 21.605469 7.90625 22.707031 9.261719 22.707031 L 20.734375 22.707031 C 22.089844 22.707031 23.191406 21.605469 23.191406 20.25 L 23.191406 8.777344 C 23.191406 7.421875 22.089844 6.320312 20.734375 6.320312 Z M 9.261719 6.320312 " fill-opacity="1" fill-rule="evenodd"/></g></svg>