<svg xmlns="http://www.w3.org/2000/svg" xmlns:xlink="http://www.w3.org/1999/xlink" width="40" zoomAndPan="magnify" viewBox="0 0 30 30.000001" height="40" preserveAspectRatio="xMidYMid meet" version="1.0"><defs><clipPath id="1dd1675774"><path d="M 10.300781 4.570312 L 19.738281 4.570312 L 19.738281 24.167969 L 10.300781 24.167969 Z M 10.300781 4.570312 " clip-rule="nonzero"/></clipPath></defs><g clip-path="url(#1dd1675774)"><path fill="#ffffff" d="M 17.558594 7.824219 L 19.738281 7.824219 L 19.738281 4.605469 L 16.957031 4.605469 L 16.957031 4.617188 C 13.300781 4.75 12.550781 6.757812 12.488281 8.878906 L 12.476562 8.878906 L 12.476562 11.113281 L 10.300781 11.113281 L 10.300781 14.335938 L 12.476562 14.335938 L 12.476562 24.136719 L 16.382812 24.136719 L 16.382812 14.335938 L 19.183594 14.335938 L 19.738281 11.113281 L 16.382812 11.113281 L 16.382812 9.113281 C 16.382812 8.402344 16.871094 7.824219 17.558594 7.824219 Z M 17.558594 7.824219 " fill-opacity="1" fill-rule="nonzero"/></g></svg>